<svg width="20" height="20" viewBox="0 0 20 20" fill="none" xmlns="http://www.w3.org/2000/svg">
<path d="M7.65845 11.6415V5.64149L12.3209 2.94983C14.9043 1.45816 19.5293 5.13733 17.5876 8.50399" stroke="white" stroke-width="0.5" stroke-linejoin="round"/>
<path d="M7.65845 8.7251L12.8543 5.7251L17.5168 8.41676C20.1001 9.90843 19.2251 15.7543 15.3376 15.7543" stroke="white" stroke-width="0.5" stroke-linejoin="round"/>
<path d="M10.1833 7.2666L15.3792 10.2666V15.6541C15.3792 18.6374 9.87917 20.8041 7.9375 17.4374" stroke="white" stroke-width="0.5" stroke-linejoin="round"/>
<path d="M12.7083 8.8335V14.7252L8.04581 17.4168C5.46248 18.9085 0.837481 15.2293 2.77915 11.8627" stroke="white" stroke-width="0.5" stroke-linejoin="round"/>
<path d="M12.7084 11.6415L7.51258 14.6415L2.85008 11.9498C0.262576 10.454 1.13758 4.6123 5.02508 4.6123" stroke="white" stroke-width="0.5" stroke-linejoin="round"/>
<path d="M10.1834 13.1002L4.98755 10.1002V4.71265C4.98755 1.72932 10.4875 -0.437349 12.4292 2.92932" stroke="white" stroke-width="0.5" stroke-linejoin="round"/>
</svg>
