<svg width="26" height="26" viewBox="0 0 26 26" fill="none" xmlns="http://www.w3.org/2000/svg">
<path d="M5.00067 20.5832C4.50161 20.5832 4.08525 20.4163 3.75158 20.0827C3.41792 19.749 3.25072 19.3323 3.25 18.8325V7.16717C3.25 6.66812 3.41719 6.25175 3.75158 5.91809C4.08597 5.58442 4.50197 5.41723 4.99958 5.4165H21.0004C21.4988 5.4165 21.9148 5.5837 22.2484 5.91809C22.5821 6.25248 22.7493 6.66884 22.75 7.16717V18.8336C22.75 19.3319 22.5828 19.7483 22.2484 20.0827C21.914 20.4171 21.498 20.5839 21.0004 20.5832H5.00067ZM5.00067 19.4998H21.0004C21.1665 19.4998 21.3193 19.4305 21.4587 19.2918C21.5981 19.1532 21.6674 19.0001 21.6667 18.8325V8.6665H4.33333V18.8336C4.33333 18.9997 4.40267 19.1524 4.54133 19.2918C4.68 19.4312 4.83275 19.5006 4.99958 19.4998M8.125 17.6452L7.37858 16.8998L10.1703 14.0832L7.35367 11.2665L8.12608 10.5212L11.6881 14.0832L8.125 17.6452ZM13.5417 17.8748V16.7915H18.9583V17.8748H13.5417Z" fill="white"/>
</svg>
