<svg width="80" height="96" viewBox="0 0 80 96" fill="none" xmlns="http://www.w3.org/2000/svg">
  <!-- antenna -->
  <rect x="36" y="0" width="8" height="8" fill="#11A32A"/>
  <rect x="38" y="8" width="4" height="4" fill="#11A32A"/>
  <!-- head -->
  <rect x="24" y="12" width="32" height="24" fill="#11A32A"/>
  <rect x="28" y="16" width="24" height="16" fill="#0A1212"/>
  <!-- eyes -->
  <rect x="32" y="22" width="4" height="4" fill="#11A32A"/>
  <rect x="44" y="22" width="4" height="4" fill="#11A32A"/>
  <!-- smile -->
  <rect x="34" y="28" width="4" height="2" fill="#11A32A"/>
  <rect x="38" y="30" width="4" height="2" fill="#11A32A"/>
  <rect x="42" y="28" width="4" height="2" fill="#11A32A"/>
  <!-- body -->
  <rect x="28" y="36" width="24" height="20" fill="#11A32A"/>
  <rect x="32" y="40" width="16" height="12" fill="#0A1212"/>
  <!-- arms -->
  <rect x="16" y="38" width="12" height="8" fill="#11A32A"/>
  <rect x="52" y="38" width="12" height="8" fill="#11A32A"/>
  <!-- legs -->
  <rect x="30" y="56" width="8" height="12" fill="#11A32A"/>
  <rect x="42" y="56" width="8" height="12" fill="#11A32A"/>
  <!-- feet -->
  <rect x="28" y="68" width="12" height="4" fill="#11A32A"/>
  <rect x="40" y="68" width="12" height="4" fill="#11A32A"/>
</svg>
