<svg width="110" height="110" viewBox="0 0 110 110" fill="none" xmlns="http://www.w3.org/2000/svg">
<path d="M12.7554 0H97.2446C103.441 0 108.602 4.41375 109.757 10.2667C105.984 17.761 101.032 24.6008 95.0904 30.525C84.5626 41.1257 71.1938 48.4556 56.595 51.6313V15.1433H53.405V52.25C48.9317 53.0246 44.3988 53.4096 39.8567 53.405V56.595C44.495 56.6011 49.0111 56.9861 53.405 57.75V94.8567H56.595V58.3688C71.1938 61.5444 84.5626 68.8743 95.0904 79.475C101.032 85.3992 105.984 92.239 109.757 99.7333C109.184 102.629 107.623 105.236 105.34 107.109C103.058 108.981 100.197 110.003 97.2446 110H12.7554C11.0804 110 9.42169 109.67 7.87413 109.029C6.32657 108.388 4.92042 107.448 3.73598 106.264C2.55153 105.08 1.61197 103.673 0.970948 102.126C0.329929 100.578 0 98.9196 0 97.2446L0 12.7554C0 9.37247 1.34387 6.12808 3.73598 3.73598C6.12808 1.34387 9.37247 0 12.7554 0ZM97.3454 32.78C102.248 27.874 106.501 22.3596 110 16.3717V93.6283C106.501 87.6404 102.248 82.126 97.3454 77.22C86.1808 66.0793 72.0261 58.4138 56.595 55.1513V54.8488C72.0261 51.5862 86.1808 43.9207 97.3454 32.78Z" fill="white" fill-opacity="0.41"/>
</svg>
