<svg width="26" height="26" viewBox="0 0 26 26" fill="none" xmlns="http://www.w3.org/2000/svg">
<path d="M12.9999 14.0832C12.6701 14.0793 12.347 14.1766 12.0741 14.3619C11.8013 14.5472 11.5917 14.8117 11.4737 15.1197C11.3557 15.4277 11.3349 15.7645 11.4141 16.0847C11.4933 16.4049 11.6686 16.6932 11.9166 16.9107V18.4165C11.9166 18.7038 12.0307 18.9794 12.2339 19.1825C12.4371 19.3857 12.7126 19.4998 12.9999 19.4998C13.2872 19.4998 13.5628 19.3857 13.766 19.1825C13.9691 18.9794 14.0833 18.7038 14.0833 18.4165V16.9107C14.3312 16.6932 14.5066 16.4049 14.5858 16.0847C14.6649 15.7645 14.6441 15.4277 14.5261 15.1197C14.4081 14.8117 14.1986 14.5472 13.9257 14.3619C13.6528 14.1766 13.3297 14.0793 12.9999 14.0832ZM18.4166 9.74984V7.58317C18.4166 6.14658 17.8459 4.76883 16.8301 3.75301C15.8143 2.73719 14.4365 2.1665 12.9999 2.1665C11.5633 2.1665 10.1856 2.73719 9.16976 3.75301C8.15393 4.76883 7.58325 6.14658 7.58325 7.58317V9.74984C6.7213 9.74984 5.89465 10.0922 5.28516 10.7017C4.67566 11.3112 4.33325 12.1379 4.33325 12.9998V20.5832C4.33325 21.4451 4.67566 22.2718 5.28516 22.8813C5.89465 23.4908 6.7213 23.8332 7.58325 23.8332H18.4166C19.2785 23.8332 20.1052 23.4908 20.7147 22.8813C21.3242 22.2718 21.6666 21.4451 21.6666 20.5832V12.9998C21.6666 12.1379 21.3242 11.3112 20.7147 10.7017C20.1052 10.0922 19.2785 9.74984 18.4166 9.74984ZM9.74992 7.58317C9.74992 6.72122 10.0923 5.89457 10.7018 5.28507C11.3113 4.67558 12.138 4.33317 12.9999 4.33317C13.8619 4.33317 14.6885 4.67558 15.298 5.28507C15.9075 5.89457 16.2499 6.72122 16.2499 7.58317V9.74984H9.74992V7.58317ZM19.4999 20.5832C19.4999 20.8705 19.3858 21.146 19.1826 21.3492C18.9795 21.5524 18.7039 21.6665 18.4166 21.6665H7.58325C7.29593 21.6665 7.02038 21.5524 6.81722 21.3492C6.61406 21.146 6.49992 20.8705 6.49992 20.5832V12.9998C6.49992 12.7125 6.61406 12.437 6.81722 12.2338C7.02038 12.0306 7.29593 11.9165 7.58325 11.9165H18.4166C18.7039 11.9165 18.9795 12.0306 19.1826 12.2338C19.3858 12.437 19.4999 12.7125 19.4999 12.9998V20.5832Z" fill="white"/>
</svg>
