<svg width="26" height="26" viewBox="0 0 26 26" fill="none" xmlns="http://www.w3.org/2000/svg">
<path d="M11.9167 10.8332C11.9167 11.9824 12.3732 13.0846 13.1859 13.8973C13.9985 14.71 15.1007 15.1665 16.25 15.1665C16.8246 15.1665 17.3757 15.3948 17.7821 15.8011C18.1884 16.2074 18.4167 16.7585 18.4167 17.3332C18.4167 17.9078 18.1884 18.4589 17.7821 18.8652C17.3757 19.2716 16.8246 19.4998 16.25 19.4998C15.2049 19.4945 14.1722 19.2732 13.2167 18.8498C12.675 18.6332 12.2417 18.8498 12.1333 19.4998L12.025 20.5832L11.05 21.5582C10.6167 21.9915 10.725 22.5332 11.2667 22.8582C12.7833 23.5082 14.5167 23.8332 16.25 23.8332C19.825 23.8332 22.75 20.9082 22.75 17.3332V8.6665C22.75 7.51723 22.2935 6.41503 21.4808 5.60237C20.6681 4.78972 19.5659 4.33317 18.4167 4.33317H13.4333C12.675 3.03317 11.2667 2.1665 9.75 2.1665H6.5C4.65833 2.1665 3.25 3.57484 3.25 5.4165V6.49984C3.25 8.51106 4.04896 10.4399 5.47111 11.8621C6.89326 13.2842 8.82211 14.0832 10.8333 14.0832H13.4333M16.7917 10.8332H16.25" stroke="white" stroke-width="2" stroke-linecap="round" stroke-linejoin="round"/>
</svg>
