<svg width="29" height="29" viewBox="0 0 29 29" fill="none" xmlns="http://www.w3.org/2000/svg">
<path d="M27.9452 1.03775C27.9452 0.754417 27.6619 0.61275 27.3785 0.471083C21.9952 -0.945584 16.1869 0.896083 12.6452 5.14608L10.8035 7.27108L6.97852 6.27942C5.42019 5.71275 3.86185 6.42108 3.15352 7.83775L0.178518 13.0794C0.178518 13.0794 0.178518 13.2211 0.0368517 13.2211C-0.104815 13.6461 0.178518 13.9294 0.603518 14.0711L5.42018 15.0627C4.99518 16.3377 4.57019 17.6127 4.42852 18.8877C4.42852 19.1711 4.42852 19.3127 4.57018 19.4544L8.82018 23.5627C8.96185 23.7044 9.10352 23.7044 9.38685 23.7044C10.6619 23.5628 12.0785 23.2794 13.3535 22.8544L14.3452 27.5294C14.3452 27.8127 14.7702 28.0961 15.0535 28.0961C15.1952 28.0961 15.3369 28.0961 15.3369 27.9544L20.5785 24.9794C21.8535 24.2711 22.4202 22.7127 22.1369 21.2961L21.1452 17.1877L23.1285 15.3461C27.5202 12.0877 29.3619 6.42108 27.9452 1.03775ZM1.87852 12.9377L4.28685 8.54608C4.71185 7.69608 5.56185 7.41275 6.41185 7.69608L9.67018 8.54608L8.25352 10.2461C7.40352 11.3794 6.55352 12.5127 5.98685 13.7877L1.87852 12.9377ZM20.0119 24.1294L15.6202 26.6794L14.7702 22.5711C16.0452 22.0044 17.1785 21.1544 18.3119 20.3044L20.1535 18.6044L21.0035 21.8627C21.0035 22.7127 20.7202 23.7044 20.0119 24.1294ZM22.2785 14.6377L17.3202 19.1711C15.1952 21.0127 12.5035 22.1461 9.67018 22.4294L5.98685 18.7461C6.41185 15.9127 7.54518 13.2211 9.38685 11.0961L11.6535 8.54608L11.7952 8.40442L13.7785 6.13775C16.8952 2.45442 21.9952 0.754417 26.6702 1.74608C27.6619 6.56275 26.1035 11.5211 22.2785 14.6377ZM20.5785 5.14608C19.0202 5.14608 17.8869 6.42108 17.8869 7.83775C17.8869 9.25442 19.1618 10.5294 20.5785 10.5294C22.1369 10.5294 23.2702 9.25442 23.2702 7.83775C23.2702 6.42108 22.1369 5.14608 20.5785 5.14608ZM20.5785 9.25442C19.8702 9.25442 19.3035 8.68775 19.3035 7.97942C19.3035 7.27108 19.8702 6.70442 20.5785 6.70442C21.2868 6.70442 21.8535 7.27108 21.8535 7.97942C21.8535 8.68775 21.2868 9.25442 20.5785 9.25442Z" fill="white"/>
</svg>
