<svg width="20" height="20" viewBox="0 0 20 20" fill="none" xmlns="http://www.w3.org/2000/svg">
<path d="M19.625 4.22258C19.3865 4.22225 19.1504 4.26893 18.93 4.35995C18.7096 4.45098 18.5093 4.58456 18.3406 4.75305C18.1718 4.92154 18.038 5.12165 17.9467 5.34191C17.8553 5.56218 17.8083 5.79829 17.8083 6.03674V10.0926C17.8061 10.4809 17.6509 10.8527 17.3763 11.1272C17.1018 11.4018 16.73 11.5571 16.3417 11.5592C16.1012 11.5577 15.8646 11.499 15.6514 11.388C15.4381 11.277 15.2542 11.1169 15.115 10.9209L10.9725 5.00424C10.8032 4.76131 10.5775 4.56301 10.3148 4.4263C10.0522 4.28959 9.76029 4.21855 9.46417 4.21924C8.51917 4.21924 7.66917 5.02258 7.66917 6.01341V10.0934C7.66917 10.9034 7.005 11.5601 6.2025 11.5601C5.7275 11.5601 5.25583 11.3209 4.97583 10.9217L0.34 4.30008C0.317313 4.2674 0.284781 4.24283 0.247147 4.22994C0.209513 4.21705 0.168746 4.21652 0.13079 4.22843C0.0928341 4.24033 0.0596749 4.26406 0.0361477 4.29613C0.0126204 4.32821 -4.43596e-05 4.36696 1.16745e-07 4.40674V7.94424C1.16745e-07 8.12341 0.0550001 8.29674 0.156667 8.44424L4.71917 14.9592C4.98917 15.3442 5.38583 15.6301 5.845 15.7342C6.10829 15.7943 6.3817 15.7944 6.64505 15.7346C6.90839 15.6748 7.15495 15.5567 7.36652 15.3889C7.57809 15.2211 7.74927 15.0079 7.86742 14.765C7.98558 14.5222 8.04769 14.256 8.04917 13.9859V9.90841C8.04917 9.09841 8.705 8.44174 9.51583 8.44174H9.5175C9.75818 8.44193 9.99528 8.50002 10.2088 8.61112C10.4223 8.72223 10.6059 8.88307 10.7442 9.08008L14.8875 14.9967C15.1058 15.3133 15.4193 15.5522 15.7824 15.6786C16.1456 15.805 16.5396 15.8125 16.9073 15.7C17.275 15.5875 17.5973 15.3607 17.8275 15.0527C18.0577 14.7446 18.1838 14.3713 18.1875 13.9867V9.90758C18.1875 9.51859 18.342 9.14554 18.6171 8.87049C18.8921 8.59543 19.2652 8.44091 19.6542 8.44091H19.8167C19.8653 8.44091 19.9119 8.4216 19.9463 8.38721C19.9807 8.35283 20 8.3062 20 8.25758V4.40591C20 4.35729 19.9807 4.31066 19.9463 4.27627C19.9119 4.24189 19.8653 4.22258 19.8167 4.22258H19.625Z" fill="white" fill-opacity="0.68"/>
</svg>
