<svg width="110" height="110" viewBox="0 0 110 110" fill="none" xmlns="http://www.w3.org/2000/svg">
<path d="M55.6395 0.00125042C46.5737 0.0654171 40.7574 2.66875 37.627 4.65333C37.2712 4.88301 36.9758 5.19475 36.7656 5.56236C36.5554 5.92996 36.4365 6.34267 36.419 6.76577C36.4015 7.18887 36.4858 7.61 36.6649 7.99372C36.844 8.37744 37.1127 8.71254 37.4482 8.97083L66.5753 31.6171C69.142 33.6108 72.9003 32.4742 73.9545 29.3942L80.1878 11.0929C80.3528 10.5982 80.3687 10.0659 80.2334 9.56225C80.0981 9.0586 79.8177 8.60587 79.427 8.26042C73.9112 3.50066 67.0044 0.651755 59.737 0.13875C58.3751 0.0375035 57.0051 -0.00836767 55.6395 0.00125042ZM19.2157 16.1117C15.7599 17.9908 6.9049 23.7796 2.3399 35.6825C-1.1801 44.8583 0.0574043 55.015 1.02907 59.9742C1.1049 60.3552 1.26335 60.7151 1.49326 61.0283C1.72317 61.3415 2.01895 61.6006 2.35978 61.7871C2.7006 61.9737 3.07818 62.0833 3.46593 62.1082C3.85369 62.1331 4.24218 62.0727 4.60407 61.9313L60.6262 40.0596C64.6274 38.5013 64.6457 32.8408 60.6537 31.2596L22.0253 15.9467C21.5753 15.7588 21.0883 15.6761 20.6015 15.7046C20.1146 15.7332 19.6407 15.8724 19.2157 16.1117ZM90.5095 19.1138L76.3699 31.6583C75.8306 32.136 75.4077 32.7308 75.1338 33.3971C74.8598 34.0634 74.742 34.7836 74.7893 35.5025C74.8366 36.2214 75.0479 36.9199 75.4069 37.5446C75.7658 38.1692 76.263 38.7034 76.8603 39.1063L105.135 58.2875C106.753 59.3875 108.962 58.4067 109.242 56.4725C109.984 51.3392 110.63 42.4154 107.665 35.6825C103.705 26.7083 96.9903 21.1808 93.8049 18.9304C93.312 18.5918 92.7207 18.4261 92.1236 18.4593C91.5265 18.4924 90.9619 18.7226 90.5095 19.1138ZM63.4724 42.4017C62.4485 42.3537 61.4371 42.6435 60.5941 43.2267L8.37157 78.2892C7.79203 78.6828 7.35067 79.2484 7.10973 79.9063C6.86879 80.5641 6.84043 81.281 7.02865 81.9558C8.13782 85.9342 11.4378 94.2117 20.8062 101.751C30.1745 109.286 41.257 110.107 45.9962 109.992C46.6863 109.975 47.3537 109.742 47.9046 109.326C48.4555 108.91 48.862 108.332 49.067 107.673L67.7441 48.58C68.7524 45.3808 66.3187 42.5575 63.4724 42.4017ZM75.4441 43.0158C73.1937 43.0617 71.0212 44.6888 70.792 47.3333L65.6266 106.151C65.5918 106.543 65.6442 106.937 65.7801 107.306C65.9161 107.675 66.1321 108.009 66.4126 108.284C66.6932 108.559 67.0312 108.769 67.4026 108.898C67.7739 109.027 68.1691 109.072 68.5599 109.03C73.9178 108.452 84.9178 106.316 93.1632 98.4421C98.8904 92.9195 102.856 85.8265 104.562 78.0554C104.663 77.5711 104.656 77.0703 104.54 76.5892C104.424 76.1082 104.203 75.6587 103.893 75.2733L79.1795 44.7621C78.1712 43.5246 76.7962 42.9929 75.4487 43.0204" fill="white" fill-opacity="0.41"/>
</svg>
