<svg width="110" height="110" viewBox="0 0 110 110" fill="none" xmlns="http://www.w3.org/2000/svg">
<path d="M98.3583 9.95508H11.6417C8.55782 9.96715 5.60373 11.1976 3.4231 13.3782C1.24248 15.5588 0.01207 18.5129 0 21.5967L0 88.3988C0.01207 91.4827 1.24248 94.4368 3.4231 96.6174C5.60373 98.798 8.55782 100.028 11.6417 100.04H98.3583C101.442 100.028 104.396 98.798 106.577 96.6174C108.758 94.4368 109.988 91.4827 110 88.3988V21.6013C109.988 18.5175 108.758 15.5634 106.577 13.3828C104.396 11.2021 101.442 9.97173 98.3583 9.95966V9.95508ZM46.475 75.4647L25.3183 87.7709C24.0195 88.5258 22.474 88.7338 21.0218 88.3491C19.5696 87.9645 18.3297 87.0187 17.5748 85.7199C16.8199 84.421 16.6119 82.8755 16.9966 81.4233C17.3812 79.9711 18.327 78.7312 19.6258 77.9763L40.7917 65.6792C41.4345 65.3058 42.1446 65.0626 42.8814 64.9635C43.6182 64.8645 44.3673 64.9115 45.0859 65.102C45.8046 65.2924 46.4786 65.6226 47.0697 66.0735C47.6607 66.5245 48.1572 67.0875 48.5306 67.7303C48.9041 68.3731 49.1473 69.0832 49.2464 69.82C49.3454 70.5568 49.2984 71.3059 49.1079 72.0246C48.9174 72.7432 48.5873 73.4173 48.1363 74.0083C47.6854 74.5993 47.1224 75.0958 46.4796 75.4692L46.475 75.4647ZM54.8029 56.728H54.7754C54.0321 56.725 53.2966 56.5756 52.611 56.2884C51.9254 56.0011 51.3031 55.5817 50.7796 55.0539C50.2561 54.5262 49.8417 53.9005 49.56 53.2126C49.2783 52.5247 49.1349 51.788 49.1379 51.0447L49.2433 26.6613C49.2506 25.1636 49.8507 23.7298 50.9123 22.6733C51.9739 21.6169 53.4106 21.0238 54.9083 21.0238H54.9313C55.675 21.0268 56.4108 21.1764 57.0967 21.4639C57.7826 21.7514 58.4051 22.1713 58.9287 22.6995C59.4523 23.2278 59.8666 23.854 60.148 24.5424C60.4294 25.2309 60.5724 25.968 60.5688 26.7117L60.4633 51.0951C60.4561 52.592 59.8566 54.0251 58.796 55.0815C57.7354 56.1378 56.2998 56.7314 54.8029 56.7326V56.728ZM92.2488 85.6947C91.8774 86.3394 91.3827 86.9045 90.7928 87.3579C90.2029 87.8112 89.5294 88.1438 88.8108 88.3366C88.0923 88.5295 87.3428 88.5788 86.6051 88.4817C85.8675 88.3846 85.1563 88.1431 84.5121 87.7709L63.3187 75.5334C62.0181 74.7828 61.0689 73.5462 60.6799 72.0958C60.291 70.6453 60.4942 69.0997 61.2448 67.799C61.9954 66.4984 63.232 65.5492 64.6824 65.1602C66.1329 64.7713 67.6785 64.9745 68.9792 65.7251L90.1725 77.9626C90.8168 78.3343 91.3816 78.8293 91.8344 79.4194C92.2873 80.0095 92.6194 80.683 92.8118 81.4015C93.0042 82.1201 93.0531 82.8695 92.9557 83.6069C92.8583 84.3443 92.6165 85.0553 92.2442 85.6992L92.2488 85.6947Z" fill="#F1F5F9" fill-opacity="0.42"/>
</svg>
