<svg width="110" height="110" viewBox="0 0 110 110" fill="none" xmlns="http://www.w3.org/2000/svg">
<path d="M60.5323 0.0277071C59.1779 -0.0603753 57.8199 0.130969 56.5425 0.589854C55.2652 1.04874 54.0959 1.76536 53.1073 2.69521C51.208 4.48391 50.0957 6.95277 50.0141 9.56041C49.9324 12.168 50.8882 14.7016 52.6718 16.6056L68.2918 32.8765C69.7123 34.3972 70.7744 36.2167 71.4001 38.2013C72.0258 40.186 72.1994 42.2856 71.908 44.3461C71.6166 46.4066 70.8676 48.3757 69.7161 50.109C68.5645 51.8423 67.0396 53.2959 65.2531 54.3631L63.131 55.4585V33.3898C53.8295 38.1816 45.708 44.979 39.3528 53.2911C32.9977 61.6032 28.5674 71.2228 26.3818 81.4552V81.5331L56.3981 66.2798V101.209L63.1539 110V62.7094L67.2652 60.5873C70.1036 59.1571 72.5679 57.0824 74.4608 54.5292C76.3537 51.9759 77.6226 49.015 78.1661 45.8834C78.7095 42.7519 78.5124 39.5366 77.5905 36.4948C76.6686 33.4531 75.0474 30.6694 72.8568 28.3665L57.411 12.2102C56.7963 11.5446 56.4693 10.6631 56.501 9.75761C56.5328 8.8521 56.9208 7.99575 57.5806 7.37479C58.2471 6.75926 59.1298 6.43215 60.0365 6.46478C60.9431 6.4974 61.8001 6.88712 62.4206 7.54896L64.561 9.77646L64.5335 9.80396L83.1877 29.2556C83.212 29.2809 83.2412 29.3009 83.2735 29.3146C83.3058 29.3283 83.3405 29.3354 83.3756 29.3354C83.4107 29.3354 83.4454 29.3283 83.4777 29.3146C83.5099 29.3009 83.5391 29.2809 83.5635 29.2556C83.5971 29.2089 83.6151 29.1528 83.6151 29.0952C83.6151 29.0377 83.5971 28.9815 83.5635 28.9348L69.1718 5.36271L68.4889 6.01812L69.1718 5.35354C66.431 1.80146 63.3831 0.247707 60.5323 0.0277071ZM56.3981 45.2423V58.9648L37.3681 68.8144C40.5264 62.1273 44.8169 56.0365 50.0502 50.811C52.0416 48.8174 54.1621 46.9571 56.3981 45.2423Z" fill="white" fill-opacity="0.41"/>
</svg>
