<svg width="230" height="37" viewBox="0 0 230 37" fill="none" xmlns="http://www.w3.org/2000/svg">
<path d="M93.5404 10.88V25.64C93.5404 26.8933 93.7871 27.7867 94.2804 28.32C94.7871 28.8533 95.5471 29.12 96.5604 29.12C97.5204 29.12 98.4471 28.8333 99.3404 28.26C100.234 27.6867 100.94 26.9867 101.46 26.16V10.88H105.94V32H102.08L101.8 29.3C101.014 30.3533 100.02 31.16 98.8204 31.72C97.6204 32.2667 96.3937 32.54 95.1404 32.54C93.1004 32.54 91.5737 31.98 90.5604 30.86C89.5604 29.7267 89.0604 28.1733 89.0604 26.2V10.88H93.5404ZM120.725 29.1C122.125 29.1 123.238 28.8533 124.065 28.36C124.891 27.8533 125.305 27.16 125.305 26.28C125.305 25.7067 125.185 25.22 124.945 24.82C124.705 24.4067 124.225 24.0333 123.505 23.7C122.785 23.3533 121.691 22.9933 120.225 22.62C118.838 22.26 117.618 21.8333 116.565 21.34C115.525 20.8467 114.718 20.2067 114.145 19.42C113.571 18.6333 113.285 17.62 113.285 16.38C113.285 15.1667 113.625 14.1067 114.305 13.2C114.985 12.2933 115.958 11.5867 117.225 11.08C118.505 10.5733 120.005 10.32 121.725 10.32C123.498 10.32 125.045 10.5533 126.365 11.02C127.685 11.4867 128.811 12.0667 129.745 12.76L127.865 15.58C127.038 15.0333 126.131 14.5867 125.145 14.24C124.171 13.8933 123.071 13.72 121.845 13.72C120.418 13.72 119.391 13.9333 118.765 14.36C118.151 14.7867 117.845 15.3533 117.845 16.06C117.845 16.58 117.998 17.02 118.305 17.38C118.625 17.7267 119.171 18.0533 119.945 18.36C120.718 18.6533 121.811 19 123.225 19.4C124.598 19.7733 125.791 20.2133 126.805 20.72C127.831 21.2267 128.625 21.9 129.185 22.74C129.758 23.5667 130.045 24.6467 130.045 25.98C130.045 27.5 129.605 28.7467 128.725 29.72C127.858 30.68 126.711 31.3933 125.285 31.86C123.871 32.3133 122.351 32.54 120.725 32.54C118.765 32.54 117.071 32.26 115.645 31.7C114.218 31.1267 113.018 30.4133 112.045 29.56L114.425 26.84C115.251 27.5067 116.198 28.0533 117.265 28.48C118.331 28.8933 119.485 29.1 120.725 29.1ZM140.749 22.88C140.842 24.32 141.149 25.5 141.669 26.42C142.189 27.3267 142.869 27.9933 143.709 28.42C144.562 28.8467 145.496 29.06 146.509 29.06C147.549 29.06 148.509 28.9 149.389 28.58C150.269 28.26 151.156 27.8067 152.049 27.22L153.989 29.9C153.002 30.7 151.849 31.34 150.529 31.82C149.209 32.3 147.796 32.54 146.289 32.54C144.102 32.54 142.249 32.0733 140.729 31.14C139.222 30.2067 138.076 28.9067 137.289 27.24C136.502 25.5733 136.109 23.6467 136.109 21.46C136.109 19.34 136.496 17.4467 137.269 15.78C138.042 14.1 139.149 12.7733 140.589 11.8C142.029 10.8133 143.749 10.32 145.749 10.32C147.629 10.32 149.242 10.7467 150.589 11.6C151.949 12.4533 152.996 13.6667 153.729 15.24C154.476 16.8 154.849 18.68 154.849 20.88C154.849 21.24 154.836 21.6 154.809 21.96C154.796 22.3067 154.776 22.6133 154.749 22.88H140.749ZM145.789 13.64C144.389 13.64 143.229 14.14 142.309 15.14C141.402 16.14 140.876 17.7 140.729 19.82H150.509C150.469 17.8333 150.042 16.3067 149.229 15.24C148.429 14.1733 147.282 13.64 145.789 13.64ZM171.194 28.86C172.18 28.86 173.1 28.6933 173.954 28.36C174.807 28.0133 175.62 27.5667 176.394 27.02L178.474 29.9C177.554 30.6867 176.434 31.3267 175.114 31.82C173.807 32.3 172.454 32.54 171.054 32.54C168.894 32.54 167.047 32.0867 165.514 31.18C163.98 30.26 162.807 28.9733 161.994 27.32C161.18 25.6667 160.774 23.74 160.774 21.54C160.774 19.3933 161.18 17.48 161.994 15.8C162.82 14.1067 164.007 12.7733 165.554 11.8C167.1 10.8133 168.96 10.32 171.134 10.32C172.574 10.32 173.9 10.5333 175.114 10.96C176.327 11.3867 177.44 12.02 178.454 12.86L176.394 15.68C175.567 15.1067 174.72 14.6733 173.854 14.38C173 14.0733 172.12 13.92 171.214 13.92C169.547 13.92 168.18 14.5333 167.114 15.76C166.06 16.9867 165.534 18.9133 165.534 21.54C165.534 23.3 165.774 24.72 166.254 25.8C166.747 26.8667 167.42 27.6467 168.274 28.14C169.127 28.62 170.1 28.86 171.194 28.86ZM202.638 30.88C201.865 31.3733 200.938 31.7733 199.858 32.08C198.778 32.3867 197.651 32.54 196.478 32.54C194.025 32.54 192.158 31.9067 190.878 30.64C189.611 29.36 188.978 27.68 188.978 25.6V14.14H184.278V10.88H188.978V6.16L193.458 5.62V10.88H200.578L200.078 14.14H193.458V25.56C193.458 26.6933 193.738 27.54 194.298 28.1C194.871 28.6467 195.805 28.92 197.098 28.92C197.871 28.92 198.585 28.8267 199.238 28.64C199.891 28.4533 200.485 28.2133 201.018 27.92L202.638 30.88ZM218.262 2.4V26.24C218.262 27.2133 218.556 27.9067 219.142 28.32C219.742 28.72 220.516 28.92 221.462 28.92C222.076 28.92 222.656 28.8533 223.202 28.72C223.749 28.5867 224.282 28.42 224.802 28.22L225.942 31.34C225.316 31.66 224.542 31.94 223.622 32.18C222.716 32.42 221.676 32.54 220.502 32.54C218.382 32.54 216.729 31.9467 215.542 30.76C214.369 29.56 213.782 27.92 213.782 25.84V5.7H207.402V2.4H218.262Z" fill="#11A32A"/>
<rect x="51.2572" width="2.5" height="37" rx="1.25" fill="#11A32A"/>
<rect x="64.1404" y="4" width="2.5" height="32.8731" rx="1.25" transform="rotate(45 64.1404 4)" fill="#11A32A"/>
<rect x="66.8956" y="30.8549" width="2.5" height="34.7125" rx="1.25" transform="rotate(135 66.8956 30.8549)" fill="#11A32A"/>
<rect x="69.5824" y="17" width="2.5" height="30" rx="1.25" transform="rotate(90 69.5824 17)" fill="#11A32A"/>
<path d="M31.5824 17.5799L18.278 22.2584C17.2965 22.6035 16.244 22.0798 15.9274 21.0886L14.6418 17.0636C14.3252 16.0724 13.2728 15.5486 12.2912 15.8939L1.50041 19.6884" stroke="#11A32A" stroke-width="3" stroke-linecap="round" stroke-linejoin="round"/>
<path d="M93.5404 10.88V25.64C93.5404 26.8933 93.7871 27.7867 94.2804 28.32C94.7871 28.8533 95.5471 29.12 96.5604 29.12C97.5204 29.12 98.4471 28.8333 99.3404 28.26C100.234 27.6867 100.94 26.9867 101.46 26.16V10.88H105.94V32H102.08L101.8 29.3C101.014 30.3533 100.02 31.16 98.8204 31.72C97.6204 32.2667 96.3937 32.54 95.1404 32.54C93.1004 32.54 91.5737 31.98 90.5604 30.86C89.5604 29.7267 89.0604 28.1733 89.0604 26.2V10.88H93.5404ZM120.725 29.1C122.125 29.1 123.238 28.8533 124.065 28.36C124.891 27.8533 125.305 27.16 125.305 26.28C125.305 25.7067 125.185 25.22 124.945 24.82C124.705 24.4067 124.225 24.0333 123.505 23.7C122.785 23.3533 121.691 22.9933 120.225 22.62C118.838 22.26 117.618 21.8333 116.565 21.34C115.525 20.8467 114.718 20.2067 114.145 19.42C113.571 18.6333 113.285 17.62 113.285 16.38C113.285 15.1667 113.625 14.1067 114.305 13.2C114.985 12.2933 115.958 11.5867 117.225 11.08C118.505 10.5733 120.005 10.32 121.725 10.32C123.498 10.32 125.045 10.5533 126.365 11.02C127.685 11.4867 128.811 12.0667 129.745 12.76L127.865 15.58C127.038 15.0333 126.131 14.5867 125.145 14.24C124.171 13.8933 123.071 13.72 121.845 13.72C120.418 13.72 119.391 13.9333 118.765 14.36C118.151 14.7867 117.845 15.3533 117.845 16.06C117.845 16.58 117.998 17.02 118.305 17.38C118.625 17.7267 119.171 18.0533 119.945 18.36C120.718 18.6533 121.811 19 123.225 19.4C124.598 19.7733 125.791 20.2133 126.805 20.72C127.831 21.2267 128.625 21.9 129.185 22.74C129.758 23.5667 130.045 24.6467 130.045 25.98C130.045 27.5 129.605 28.7467 128.725 29.72C127.858 30.68 126.711 31.3933 125.285 31.86C123.871 32.3133 122.351 32.54 120.725 32.54C118.765 32.54 117.071 32.26 115.645 31.7C114.218 31.1267 113.018 30.4133 112.045 29.56L114.425 26.84C115.251 27.5067 116.198 28.0533 117.265 28.48C118.331 28.8933 119.485 29.1 120.725 29.1ZM140.749 22.88C140.842 24.32 141.149 25.5 141.669 26.42C142.189 27.3267 142.869 27.9933 143.709 28.42C144.562 28.8467 145.496 29.06 146.509 29.06C147.549 29.06 148.509 28.9 149.389 28.58C150.269 28.26 151.156 27.8067 152.049 27.22L153.989 29.9C153.002 30.7 151.849 31.34 150.529 31.82C149.209 32.3 147.796 32.54 146.289 32.54C144.102 32.54 142.249 32.0733 140.729 31.14C139.222 30.2067 138.076 28.9067 137.289 27.24C136.502 25.5733 136.109 23.6467 136.109 21.46C136.109 19.34 136.496 17.4467 137.269 15.78C138.042 14.1 139.149 12.7733 140.589 11.8C142.029 10.8133 143.749 10.32 145.749 10.32C147.629 10.32 149.242 10.7467 150.589 11.6C151.949 12.4533 152.996 13.6667 153.729 15.24C154.476 16.8 154.849 18.68 154.849 20.88C154.849 21.24 154.836 21.6 154.809 21.96C154.796 22.3067 154.776 22.6133 154.749 22.88H140.749ZM145.789 13.64C144.389 13.64 143.229 14.14 142.309 15.14C141.402 16.14 140.876 17.7 140.729 19.82H150.509C150.469 17.8333 150.042 16.3067 149.229 15.24C148.429 14.1733 147.282 13.64 145.789 13.64ZM171.194 28.86C172.18 28.86 173.1 28.6933 173.954 28.36C174.807 28.0133 175.62 27.5667 176.394 27.02L178.474 29.9C177.554 30.6867 176.434 31.3267 175.114 31.82C173.807 32.3 172.454 32.54 171.054 32.54C168.894 32.54 167.047 32.0867 165.514 31.18C163.98 30.26 162.807 28.9733 161.994 27.32C161.18 25.6667 160.774 23.74 160.774 21.54C160.774 19.3933 161.18 17.48 161.994 15.8C162.82 14.1067 164.007 12.7733 165.554 11.8C167.1 10.8133 168.96 10.32 171.134 10.32C172.574 10.32 173.9 10.5333 175.114 10.96C176.327 11.3867 177.44 12.02 178.454 12.86L176.394 15.68C175.567 15.1067 174.72 14.6733 173.854 14.38C173 14.0733 172.12 13.92 171.214 13.92C169.547 13.92 168.18 14.5333 167.114 15.76C166.06 16.9867 165.534 18.9133 165.534 21.54C165.534 23.3 165.774 24.72 166.254 25.8C166.747 26.8667 167.42 27.6467 168.274 28.14C169.127 28.62 170.1 28.86 171.194 28.86ZM202.638 30.88C201.865 31.3733 200.938 31.7733 199.858 32.08C198.778 32.3867 197.651 32.54 196.478 32.54C194.025 32.54 192.158 31.9067 190.878 30.64C189.611 29.36 188.978 27.68 188.978 25.6V14.14H184.278V10.88H188.978V6.16L193.458 5.62V10.88H200.578L200.078 14.14H193.458V25.56C193.458 26.6933 193.738 27.54 194.298 28.1C194.871 28.6467 195.805 28.92 197.098 28.92C197.871 28.92 198.585 28.8267 199.238 28.64C199.891 28.4533 200.485 28.2133 201.018 27.92L202.638 30.88ZM218.262 2.4V26.24C218.262 27.2133 218.556 27.9067 219.142 28.32C219.742 28.72 220.516 28.92 221.462 28.92C222.076 28.92 222.656 28.8533 223.202 28.72C223.749 28.5867 224.282 28.42 224.802 28.22L225.942 31.34C225.316 31.66 224.542 31.94 223.622 32.18C222.716 32.42 221.676 32.54 220.502 32.54C218.382 32.54 216.729 31.9467 215.542 30.76C214.369 29.56 213.782 27.92 213.782 25.84V5.7H207.402V2.4H218.262Z" fill="#11A32A"/>
<rect x="51.2573" width="2.5" height="37" rx="1.25" fill="#11A32A"/>
<rect x="64.1404" y="4" width="2.5" height="32.8731" rx="1.25" transform="rotate(45 64.1404 4)" fill="#11A32A"/>
<rect x="66.8957" y="30.8549" width="2.5" height="34.7125" rx="1.25" transform="rotate(135 66.8957 30.8549)" fill="#11A32A"/>
<rect x="69.5824" y="17" width="2.5" height="30" rx="1.25" transform="rotate(90 69.5824 17)" fill="#11A32A"/>
<path d="M31.5824 17.5799L18.278 22.2584C17.2965 22.6035 16.244 22.0798 15.9274 21.0886L14.6418 17.0636C14.3252 16.0724 13.2728 15.5486 12.2912 15.8939L1.50041 19.6884" stroke="#11A32A" stroke-width="3" stroke-linecap="round" stroke-linejoin="round"/>
</svg>
