<svg width="110" height="18" viewBox="0 0 110 18" fill="none" xmlns="http://www.w3.org/2000/svg">
<path d="M22.4299 5.03572V13.7738C22.4299 14.4563 22.5639 14.9365 22.8317 15.2143C23.0996 15.4921 23.4896 15.631 24.0017 15.631C24.4902 15.631 24.9668 15.4841 25.4316 15.1905C25.8965 14.8889 26.2746 14.5079 26.5661 14.0476V5.03572H29.686V17.6429H26.9679L26.8025 16.0952C26.3534 16.7143 25.7783 17.1865 25.0771 17.5119C24.3759 17.8373 23.6511 18 22.9026 18C21.6972 18 20.7952 17.6587 20.1964 16.9762C19.6055 16.2857 19.3101 15.3452 19.3101 14.1548V5.03572H22.4299Z" fill="#11A32A"/>
<path d="M40.1354 15.6786C40.8681 15.6786 41.455 15.5516 41.8962 15.2976C42.3453 15.0357 42.5698 14.6706 42.5698 14.2024C42.5698 13.8929 42.495 13.631 42.3453 13.4167C42.2035 13.2024 41.9199 13.004 41.4944 12.8214C41.069 12.631 40.4308 12.4206 39.58 12.1905C38.7764 11.9841 38.0712 11.7302 37.4646 11.4286C36.8658 11.119 36.3971 10.7222 36.0583 10.2381C35.7274 9.75397 35.562 9.14286 35.562 8.40476C35.562 7.66667 35.7668 7.01984 36.1765 6.46429C36.5862 5.90079 37.177 5.46429 37.9491 5.15476C38.7291 4.8373 39.6666 4.67857 40.7617 4.67857C41.8332 4.67857 42.7707 4.82143 43.5743 5.10714C44.3779 5.38492 45.0673 5.73413 45.6424 6.15476L44.3661 8.07143C43.8619 7.74603 43.3144 7.48413 42.7235 7.28571C42.1405 7.07937 41.5102 6.97619 40.8326 6.97619C40.0999 6.97619 39.5642 7.08333 39.2254 7.29762C38.8945 7.51191 38.7291 7.80952 38.7291 8.19048C38.7291 8.46032 38.8118 8.69048 38.9773 8.88095C39.1506 9.06349 39.4579 9.24206 39.899 9.41667C40.3481 9.58333 40.9863 9.78572 41.8135 10.0238C42.625 10.246 43.3301 10.5079 43.9289 10.8095C44.5355 11.1111 45.0043 11.5119 45.3352 12.0119C45.6661 12.5119 45.8315 13.1667 45.8315 13.9762C45.8315 14.8889 45.5676 15.6429 45.0397 16.2381C44.5119 16.8333 43.8146 17.2778 42.948 17.5714C42.0893 17.8571 41.1557 18 40.1472 18C38.9655 18 37.9334 17.8294 37.051 17.4881C36.1686 17.1468 35.4201 16.7064 34.8056 16.1667L36.4246 14.3333C36.9131 14.7222 37.4685 15.0437 38.0909 15.2976C38.7212 15.5516 39.4027 15.6786 40.1354 15.6786Z" fill="#11A32A"/>
<path d="M54.0947 12.2976C54.1577 13.0833 54.3349 13.7222 54.6264 14.2143C54.9258 14.7064 55.3079 15.0675 55.7728 15.2976C56.2376 15.5278 56.7536 15.6429 57.3209 15.6429C57.9196 15.6429 58.4829 15.5476 59.0108 15.3571C59.5387 15.1667 60.0586 14.9008 60.5707 14.5595L61.8707 16.3571C61.2877 16.8492 60.5904 17.246 59.779 17.5476C58.9753 17.8492 58.089 18 57.12 18C55.7649 18 54.6225 17.7183 53.6929 17.1548C52.7711 16.5913 52.0738 15.8095 51.6011 14.8095C51.1284 13.8095 50.8921 12.6587 50.8921 11.3571C50.8921 10.1032 51.1245 8.97222 51.5893 7.96429C52.0541 6.95635 52.7238 6.15873 53.5983 5.57143C54.4728 4.97619 55.5285 4.67857 56.7654 4.67857C57.9157 4.67857 58.9084 4.93254 59.7435 5.44048C60.5786 5.94841 61.2247 6.67857 61.6816 7.63095C62.1385 8.5754 62.367 9.71429 62.367 11.0476C62.367 11.2619 62.3591 11.4802 62.3434 11.7024C62.3355 11.9246 62.3237 12.123 62.3079 12.2976H54.0947ZM56.7773 6.89286C56.0209 6.89286 55.3985 7.16667 54.9101 7.71429C54.4295 8.25397 54.1459 9.11111 54.0592 10.2857H59.3299C59.3141 9.22222 59.0935 8.39286 58.6681 7.79762C58.2505 7.19444 57.6203 6.89286 56.7773 6.89286Z" fill="#11A32A"/>
<path d="M73.7973 15.4762C74.3488 15.4762 74.8648 15.373 75.3454 15.1667C75.8339 14.9603 76.3027 14.6984 76.7517 14.381L78.1698 16.3929C77.6183 16.8611 76.9526 17.246 76.1727 17.5476C75.3927 17.8492 74.5576 18 73.6673 18C72.3595 18 71.2368 17.7262 70.2993 17.1786C69.3696 16.623 68.6527 15.8532 68.1485 14.869C67.6521 13.877 67.4039 12.7262 67.4039 11.4167C67.4039 10.123 67.6561 8.96825 68.1603 7.95238C68.6724 6.92857 69.3972 6.12699 70.3347 5.54762C71.2801 4.96825 72.4068 4.67857 73.7146 4.67857C74.6127 4.67857 75.4242 4.80952 76.149 5.07143C76.8817 5.3254 77.5514 5.70635 78.158 6.21429L76.7754 8.14286C76.3105 7.81746 75.8299 7.57143 75.3336 7.40476C74.8451 7.23016 74.337 7.14286 73.8091 7.14286C72.8873 7.14286 72.1349 7.48016 71.5519 8.15476C70.9768 8.82143 70.6892 9.90873 70.6892 11.4167C70.6892 12.4087 70.8232 13.2024 71.0911 13.7976C71.3668 14.3929 71.7371 14.8214 72.2019 15.0833C72.6746 15.3452 73.2064 15.4762 73.7973 15.4762Z" fill="#11A32A"/>
<path d="M94.3626 16.9405C93.8978 17.25 93.3345 17.504 92.6727 17.7024C92.0109 17.9008 91.294 18 90.5219 18C88.9935 18 87.8432 17.6032 87.0711 16.8095C86.299 16.0079 85.913 14.9444 85.913 13.619V7.26191H83.1949V5.03572H85.913V2.26191L89.0329 1.88095V5.03572H93.169L92.85 7.26191H89.0329V13.6071C89.0329 14.2579 89.1904 14.7341 89.5056 15.0357C89.8207 15.3373 90.3289 15.4881 91.0301 15.4881C91.4791 15.4881 91.8888 15.4365 92.2591 15.3333C92.6373 15.2222 92.98 15.0833 93.2872 14.9167L94.3626 16.9405Z" fill="#11A32A"/>
<path d="M105.58 0V13.9762C105.58 14.5238 105.738 14.9127 106.053 15.1429C106.376 15.373 106.809 15.4881 107.353 15.4881C107.692 15.4881 108.019 15.4524 108.334 15.381C108.649 15.3016 108.948 15.2064 109.232 15.0952L110 17.2381C109.606 17.4365 109.125 17.6111 108.558 17.7619C107.999 17.9206 107.349 18 106.608 18C105.245 18 104.213 17.6071 103.512 16.8214C102.811 16.0357 102.46 14.9762 102.46 13.6429V2.22619H98.7141V0H105.58Z" fill="#11A32A"/>
<path d="M1.4063 3.21429L10.6005 8.94048V11.4048L1.47721 17.131L0 14.9524L7.91784 10.1786L0 5.5L1.4063 3.21429Z" fill="#11A32A"/>
</svg>
