<svg width="26" height="26" viewBox="0 0 26 26" fill="none" xmlns="http://www.w3.org/2000/svg">
<path d="M5.41675 16.2498H6.92691C7.77841 16.2498 8.20525 16.2498 8.56383 16.4415C8.9235 16.6344 9.15966 16.9886 9.632 17.6971L9.80533 17.9571C10.2625 18.6429 10.4911 18.9863 10.802 18.9679C11.1118 18.9494 11.2992 18.5822 11.6719 17.8455L13.8017 13.6454C14.1907 12.8806 14.3846 12.4971 14.702 12.4852C15.0194 12.4722 15.2437 12.8384 15.6922 13.5696L16.3822 14.6963C16.8481 15.4557 17.0799 15.8349 17.4493 16.0429C17.8198 16.2487 18.264 16.2487 19.1534 16.2487H20.5834" stroke="white" stroke-width="1.5" stroke-linecap="round"/>
<path opacity="0.5" d="M2.16675 12.9998C2.16675 7.893 2.16675 5.33959 3.75275 3.7525C5.34091 2.1665 7.89325 2.1665 13.0001 2.1665C18.1069 2.1665 20.6603 2.1665 22.2463 3.7525C23.8334 5.34067 23.8334 7.893 23.8334 12.9998C23.8334 18.1067 23.8334 20.6601 22.2463 22.2461C20.6614 23.8332 18.1069 23.8332 13.0001 23.8332C7.89325 23.8332 5.33983 23.8332 3.75275 22.2461C2.16675 20.6612 2.16675 18.1067 2.16675 12.9998Z" stroke="white" stroke-width="1.5"/>
</svg>
