<svg width="26" height="26" viewBox="0 0 26 26" fill="none" xmlns="http://www.w3.org/2000/svg">
<path d="M22.4574 17.8966V8.22241C22.4582 8.09794 22.4285 7.97516 22.3707 7.86491C22.2909 7.69288 22.1527 7.55469 21.9807 7.47491L13.314 3.59658C13.2085 3.5487 13.094 3.52393 12.9782 3.52393C12.8623 3.52393 12.7478 3.5487 12.6424 3.59658L3.97569 7.47491C3.8363 7.54506 3.71844 7.65153 3.63454 7.7831C3.55064 7.91467 3.50382 8.06645 3.49902 8.22241V17.7774C3.50712 17.9326 3.55529 18.083 3.63883 18.214C3.72237 18.345 3.83843 18.4521 3.97569 18.5249L12.6424 22.4032C12.7472 22.4533 12.862 22.4792 12.9782 22.4792C13.0944 22.4792 13.2091 22.4533 13.314 22.4032L21.9807 18.5249C22.1058 18.4676 22.2148 18.3803 22.298 18.2706C22.3811 18.161 22.4359 18.0325 22.4574 17.8966ZM5.12402 9.46825L12.1657 12.6316V20.4099L5.12402 17.2574V9.46825ZM13.7907 12.6316L20.8324 9.46825V17.2574L13.7907 20.4099V12.6316ZM12.9999 5.22158L19.684 8.22241L12.9999 11.2124L6.31569 8.22241L12.9999 5.22158Z" fill="white"/>
</svg>
