<svg width="110" height="110" viewBox="0 0 110 110" fill="none" xmlns="http://www.w3.org/2000/svg">
<path d="M55.0004 5.4538C59.9871 5.4538 64.4238 8.9738 64.4238 13.3096C64.4238 17.6501 60.2025 21.1701 55.0004 21.1701C54.4046 21.1701 53.6269 21.0723 52.6675 20.8767C51.9234 20.732 51.1522 20.8554 50.4904 21.2251L16.7113 40.4521C16.4705 40.5906 16.2706 40.7901 16.1318 41.0306C15.9929 41.271 15.9201 41.5439 15.9205 41.8216C15.921 42.0993 15.9948 42.3719 16.1344 42.6119C16.2741 42.8519 16.4747 43.0508 16.7158 43.1884L53.3367 63.7676C53.8058 64.0276 54.3334 64.164 54.8698 64.164C55.4062 64.164 55.9338 64.0276 56.4029 63.7676L93.2254 43.2892C93.4693 43.1537 93.6728 42.9557 93.8149 42.7156C93.957 42.4755 94.0327 42.2019 94.0341 41.9228C94.0355 41.6438 93.9626 41.3694 93.8229 41.1279C93.6832 40.8863 93.4817 40.6863 93.2392 40.5484L81.7488 34.0217C81.2816 33.7545 80.7533 33.6128 80.2151 33.6104C79.677 33.608 79.1474 33.745 78.6779 34.008L66.5458 40.7363C66.3944 40.8187 66.2655 40.937 66.1704 41.0809C66.0753 41.2247 66.0169 41.3897 66.0004 41.5613L65.9958 41.6759C65.9958 46.0117 61.7746 49.5317 56.5725 49.5317C51.3704 49.5317 47.1492 46.0117 47.1492 41.6759C47.1492 37.3355 51.3704 33.8155 56.5725 33.8155C56.765 33.8155 56.9865 33.8262 57.2371 33.8476L57.6358 33.8842L58.0758 33.9438C58.7476 34.0302 59.4294 33.9019 60.0238 33.5771L77.9583 23.6176C79.3333 22.8567 80.9925 22.8338 82.3813 23.5396L82.5646 23.6451L107.613 37.8717C108.326 38.2772 108.921 38.8616 109.339 39.5672C109.758 40.2728 109.985 41.0753 109.999 41.8956C110.013 42.7159 109.813 43.5256 109.419 44.245C109.024 44.9644 108.449 45.5686 107.75 45.998L107.58 46.0942L90.8238 55.4121C90.5754 55.5496 90.3688 55.7517 90.226 55.9971C90.0833 56.2425 90.0096 56.522 90.0129 56.8059C90.0162 57.0898 90.0963 57.3675 90.2447 57.6095C90.3931 57.8515 90.6043 58.0488 90.8558 58.1805L107.448 66.9163C110.748 68.6488 110.821 73.3421 107.585 75.1846L57.1913 103.931C56.4796 104.336 55.6749 104.549 54.856 104.549C54.0372 104.549 53.2325 104.336 52.5208 103.931L2.41125 75.3038C1.67691 74.883 1.06919 74.2725 0.651728 73.5363C0.234264 72.8001 0.0224083 71.9651 0.0383392 71.1189C0.0542701 70.2727 0.297402 69.4463 0.742281 68.7263C1.18716 68.0063 1.81742 67.4192 2.56709 67.0263L19.3421 58.2676C19.5932 58.1368 19.8043 57.9406 19.9532 57.6998C20.102 57.459 20.1831 57.1824 20.1877 56.8993C20.1924 56.6162 20.1206 56.3372 19.9798 56.0915C19.839 55.8459 19.6345 55.6428 19.3879 55.5038L2.40209 45.9659C1.68932 45.564 1.09325 44.9837 0.672365 44.282C0.251476 43.5802 0.0202156 42.7811 0.00126627 41.9631C-0.0176831 41.145 0.176329 40.3361 0.564274 39.6156C0.952219 38.8951 1.52077 38.2879 2.21417 37.8534L2.37917 37.7571L44.0829 14.0246C44.7383 13.6452 45.2384 13.0461 45.4946 12.3334L45.545 12.1684C47.0117 7.80505 50.3392 5.44922 55.0004 5.44922V5.4538ZM78.2654 63.3413L57.6771 75.1938L57.4892 75.2946C56.7978 75.6535 56.0277 75.8339 55.2489 75.8195C54.4701 75.8051 53.7072 75.5963 53.0296 75.2121L32.5054 63.6301C32.0522 63.3743 31.5421 63.2361 31.0217 63.2281C30.5013 63.2201 29.9872 63.3425 29.5263 63.5842L17.6921 69.7763C17.4416 69.9066 17.2309 70.102 17.082 70.3419C16.9331 70.5817 16.8516 70.8573 16.846 71.1396C16.8403 71.4218 16.9108 71.7004 17.05 71.9461C17.1892 72.1917 17.392 72.3953 17.6371 72.5355L53.7858 93.2292C54.258 93.5002 54.7929 93.6428 55.3373 93.6428C55.8817 93.6428 56.4166 93.5002 56.8888 93.2292L93.3538 72.3888C93.5992 72.2494 93.8027 72.0465 93.9427 71.8013C94.0827 71.5562 94.1541 71.2779 94.1494 70.9956C94.1447 70.7134 94.0641 70.4376 93.916 70.1972C93.768 69.9568 93.5579 69.7608 93.3079 69.6296L81.2858 63.2863C80.819 63.0387 80.2969 62.9138 79.7685 62.9234C79.2402 62.933 78.7229 63.0768 78.2654 63.3413Z" fill="white" fill-opacity="0.41"/>
</svg>
